<mxfile host="65bd71144e">
    <diagram name="PÃ¡gina-1" id="wnnZ8ylj3zv2nBsJPMc-">
        <mxGraphModel dx="821" dy="520" grid="1" gridSize="10" guides="1" tooltips="1" connect="1" arrows="1" fold="1" page="1" pageScale="1" pageWidth="827" pageHeight="583" math="0" shadow="0">
            <root>
                <mxCell id="0"/>
                <mxCell id="1" parent="0"/>
                <mxCell id="0XhNtXdoi66XtJiH6fM7-1" value="Producto" style="swimlane;fontStyle=1;align=center;verticalAlign=top;childLayout=stackLayout;horizontal=1;startSize=26;horizontalStack=0;resizeParent=1;resizeParentMax=0;resizeLast=0;collapsible=1;marginBottom=0;whiteSpace=wrap;html=1;" parent="1" vertex="1">
                    <mxGeometry x="370" y="10" width="160" height="78" as="geometry"/>
                </mxCell>
                <mxCell id="0XhNtXdoi66XtJiH6fM7-4" value="fechaVencimiento" style="text;strokeColor=none;fillColor=none;align=left;verticalAlign=top;spacingLeft=4;spacingRight=4;overflow=hidden;rotatable=0;points=[[0,0.5],[1,0.5]];portConstraint=eastwest;whiteSpace=wrap;html=1;" parent="0XhNtXdoi66XtJiH6fM7-1" vertex="1">
                    <mxGeometry y="26" width="160" height="26" as="geometry"/>
                </mxCell>
                <mxCell id="0XhNtXdoi66XtJiH6fM7-5" value="numeroLote" style="text;strokeColor=none;fillColor=none;align=left;verticalAlign=top;spacingLeft=4;spacingRight=4;overflow=hidden;rotatable=0;points=[[0,0.5],[1,0.5]];portConstraint=eastwest;whiteSpace=wrap;html=1;" parent="0XhNtXdoi66XtJiH6fM7-1" vertex="1">
                    <mxGeometry y="52" width="160" height="26" as="geometry"/>
                </mxCell>
                <mxCell id="0XhNtXdoi66XtJiH6fM7-7" value="Fresco" style="swimlane;fontStyle=1;align=center;verticalAlign=top;childLayout=stackLayout;horizontal=1;startSize=26;horizontalStack=0;resizeParent=1;resizeParentMax=0;resizeLast=0;collapsible=1;marginBottom=0;whiteSpace=wrap;html=1;" parent="1" vertex="1">
                    <mxGeometry x="60" y="188" width="160" height="78" as="geometry"/>
                </mxCell>
                <mxCell id="0XhNtXdoi66XtJiH6fM7-8" value="fechaEnvasado" style="text;strokeColor=none;fillColor=none;align=left;verticalAlign=top;spacingLeft=4;spacingRight=4;overflow=hidden;rotatable=0;points=[[0,0.5],[1,0.5]];portConstraint=eastwest;whiteSpace=wrap;html=1;" parent="0XhNtXdoi66XtJiH6fM7-7" vertex="1">
                    <mxGeometry y="26" width="160" height="26" as="geometry"/>
                </mxCell>
                <mxCell id="0XhNtXdoi66XtJiH6fM7-12" value="granjaOrigen" style="text;strokeColor=none;fillColor=none;align=left;verticalAlign=top;spacingLeft=4;spacingRight=4;overflow=hidden;rotatable=0;points=[[0,0.5],[1,0.5]];portConstraint=eastwest;whiteSpace=wrap;html=1;" parent="0XhNtXdoi66XtJiH6fM7-7" vertex="1">
                    <mxGeometry y="52" width="160" height="26" as="geometry"/>
                </mxCell>
                <mxCell id="0XhNtXdoi66XtJiH6fM7-13" value="Refrigerado" style="swimlane;fontStyle=1;align=center;verticalAlign=top;childLayout=stackLayout;horizontal=1;startSize=26;horizontalStack=0;resizeParent=1;resizeParentMax=0;resizeLast=0;collapsible=1;marginBottom=0;whiteSpace=wrap;html=1;" parent="1" vertex="1">
                    <mxGeometry x="370" y="188" width="160" height="130" as="geometry"/>
                </mxCell>
                <mxCell id="0XhNtXdoi66XtJiH6fM7-14" value="codigoSupervision" style="text;strokeColor=none;fillColor=none;align=left;verticalAlign=top;spacingLeft=4;spacingRight=4;overflow=hidden;rotatable=0;points=[[0,0.5],[1,0.5]];portConstraint=eastwest;whiteSpace=wrap;html=1;" parent="0XhNtXdoi66XtJiH6fM7-13" vertex="1">
                    <mxGeometry y="26" width="160" height="26" as="geometry"/>
                </mxCell>
                <mxCell id="0XhNtXdoi66XtJiH6fM7-17" value="temp mantenimiento" style="text;strokeColor=none;fillColor=none;align=left;verticalAlign=top;spacingLeft=4;spacingRight=4;overflow=hidden;rotatable=0;points=[[0,0.5],[1,0.5]];portConstraint=eastwest;whiteSpace=wrap;html=1;" parent="0XhNtXdoi66XtJiH6fM7-13" vertex="1">
                    <mxGeometry y="52" width="160" height="26" as="geometry"/>
                </mxCell>
                <mxCell id="0XhNtXdoi66XtJiH6fM7-48" value="granjaOrigen" style="text;strokeColor=none;fillColor=none;align=left;verticalAlign=top;spacingLeft=4;spacingRight=4;overflow=hidden;rotatable=0;points=[[0,0.5],[1,0.5]];portConstraint=eastwest;whiteSpace=wrap;html=1;" parent="0XhNtXdoi66XtJiH6fM7-13" vertex="1">
                    <mxGeometry y="78" width="160" height="26" as="geometry"/>
                </mxCell>
                <mxCell id="0XhNtXdoi66XtJiH6fM7-49" value="fechaEnvasado" style="text;strokeColor=none;fillColor=none;align=left;verticalAlign=top;spacingLeft=4;spacingRight=4;overflow=hidden;rotatable=0;points=[[0,0.5],[1,0.5]];portConstraint=eastwest;whiteSpace=wrap;html=1;" parent="0XhNtXdoi66XtJiH6fM7-13" vertex="1">
                    <mxGeometry y="104" width="160" height="26" as="geometry"/>
                </mxCell>
                <mxCell id="0XhNtXdoi66XtJiH6fM7-20" value="Extends" style="endArrow=block;endSize=16;endFill=0;html=1;rounded=0;entryX=0.5;entryY=0;entryDx=0;entryDy=0;" parent="1" source="0XhNtXdoi66XtJiH6fM7-5" target="0XhNtXdoi66XtJiH6fM7-7" edge="1">
                    <mxGeometry width="160" relative="1" as="geometry">
                        <mxPoint x="370" y="240" as="sourcePoint"/>
                        <mxPoint x="530" y="240" as="targetPoint"/>
                        <Array as="points">
                            <mxPoint x="450" y="140"/>
                            <mxPoint x="140" y="140"/>
                        </Array>
                    </mxGeometry>
                </mxCell>
                <mxCell id="0XhNtXdoi66XtJiH6fM7-21" value="Extends" style="endArrow=block;endSize=16;endFill=0;html=1;rounded=0;" parent="1" source="0XhNtXdoi66XtJiH6fM7-5" target="0XhNtXdoi66XtJiH6fM7-13" edge="1">
                    <mxGeometry width="160" relative="1" as="geometry">
                        <mxPoint x="500" y="240" as="sourcePoint"/>
                        <mxPoint x="530" y="240" as="targetPoint"/>
                    </mxGeometry>
                </mxCell>
                <mxCell id="0XhNtXdoi66XtJiH6fM7-28" value="CongeladoAire" style="swimlane;fontStyle=1;align=center;verticalAlign=top;childLayout=stackLayout;horizontal=1;startSize=26;horizontalStack=0;resizeParent=1;resizeParentMax=0;resizeLast=0;collapsible=1;marginBottom=0;whiteSpace=wrap;html=1;" parent="1" vertex="1">
                    <mxGeometry x="170" y="412" width="160" height="130" as="geometry">
                        <mxRectangle x="170" y="412" width="130" height="30" as="alternateBounds"/>
                    </mxGeometry>
                </mxCell>
                <mxCell id="0XhNtXdoi66XtJiH6fM7-40" value="&lt;div&gt;pNitrogeno&lt;/div&gt;" style="text;strokeColor=none;fillColor=none;align=left;verticalAlign=top;spacingLeft=4;spacingRight=4;overflow=hidden;rotatable=0;points=[[0,0.5],[1,0.5]];portConstraint=eastwest;whiteSpace=wrap;html=1;" parent="0XhNtXdoi66XtJiH6fM7-28" vertex="1">
                    <mxGeometry y="26" width="160" height="26" as="geometry"/>
                </mxCell>
                <mxCell id="0XhNtXdoi66XtJiH6fM7-41" value="pOxigeno" style="text;strokeColor=none;fillColor=none;align=left;verticalAlign=top;spacingLeft=4;spacingRight=4;overflow=hidden;rotatable=0;points=[[0,0.5],[1,0.5]];portConstraint=eastwest;whiteSpace=wrap;html=1;" parent="0XhNtXdoi66XtJiH6fM7-28" vertex="1">
                    <mxGeometry y="52" width="160" height="26" as="geometry"/>
                </mxCell>
                <mxCell id="0XhNtXdoi66XtJiH6fM7-42" value="pDioxidoC" style="text;strokeColor=none;fillColor=none;align=left;verticalAlign=top;spacingLeft=4;spacingRight=4;overflow=hidden;rotatable=0;points=[[0,0.5],[1,0.5]];portConstraint=eastwest;whiteSpace=wrap;html=1;" parent="0XhNtXdoi66XtJiH6fM7-28" vertex="1">
                    <mxGeometry y="78" width="160" height="26" as="geometry"/>
                </mxCell>
                <mxCell id="0XhNtXdoi66XtJiH6fM7-43" value="pVaporAgua" style="text;strokeColor=none;fillColor=none;align=left;verticalAlign=top;spacingLeft=4;spacingRight=4;overflow=hidden;rotatable=0;points=[[0,0.5],[1,0.5]];portConstraint=eastwest;whiteSpace=wrap;html=1;" parent="0XhNtXdoi66XtJiH6fM7-28" vertex="1">
                    <mxGeometry y="104" width="160" height="26" as="geometry"/>
                </mxCell>
                <mxCell id="0XhNtXdoi66XtJiH6fM7-32" value="CongeladoAgua" style="swimlane;fontStyle=1;align=center;verticalAlign=top;childLayout=stackLayout;horizontal=1;startSize=26;horizontalStack=0;resizeParent=1;resizeParentMax=0;resizeLast=0;collapsible=1;marginBottom=0;whiteSpace=wrap;html=1;" parent="1" vertex="1">
                    <mxGeometry x="370" y="412" width="160" height="52" as="geometry">
                        <mxRectangle x="370" y="412" width="130" height="30" as="alternateBounds"/>
                    </mxGeometry>
                </mxCell>
                <mxCell id="0XhNtXdoi66XtJiH6fM7-33" value="salinidad" style="text;strokeColor=none;fillColor=none;align=left;verticalAlign=top;spacingLeft=4;spacingRight=4;overflow=hidden;rotatable=0;points=[[0,0.5],[1,0.5]];portConstraint=eastwest;whiteSpace=wrap;html=1;" parent="0XhNtXdoi66XtJiH6fM7-32" vertex="1">
                    <mxGeometry y="26" width="160" height="26" as="geometry"/>
                </mxCell>
                <mxCell id="0XhNtXdoi66XtJiH6fM7-36" value="CongeladoNitrogeno" style="swimlane;fontStyle=1;align=center;verticalAlign=top;childLayout=stackLayout;horizontal=1;startSize=26;horizontalStack=0;resizeParent=1;resizeParentMax=0;resizeLast=0;collapsible=1;marginBottom=0;whiteSpace=wrap;html=1;" parent="1" vertex="1">
                    <mxGeometry x="570" y="412" width="160" height="78" as="geometry"/>
                </mxCell>
                <mxCell id="0XhNtXdoi66XtJiH6fM7-37" value="String metodoUsado" style="text;strokeColor=none;fillColor=none;align=left;verticalAlign=top;spacingLeft=4;spacingRight=4;overflow=hidden;rotatable=0;points=[[0,0.5],[1,0.5]];portConstraint=eastwest;whiteSpace=wrap;html=1;" parent="0XhNtXdoi66XtJiH6fM7-36" vertex="1">
                    <mxGeometry y="26" width="160" height="26" as="geometry"/>
                </mxCell>
                <mxCell id="0XhNtXdoi66XtJiH6fM7-39" value="tiempoExposicion" style="text;strokeColor=none;fillColor=none;align=left;verticalAlign=top;spacingLeft=4;spacingRight=4;overflow=hidden;rotatable=0;points=[[0,0.5],[1,0.5]];portConstraint=eastwest;whiteSpace=wrap;html=1;" parent="0XhNtXdoi66XtJiH6fM7-36" vertex="1">
                    <mxGeometry y="52" width="160" height="26" as="geometry"/>
                </mxCell>
                <mxCell id="0XhNtXdoi66XtJiH6fM7-45" value="Extends" style="endArrow=block;endSize=16;endFill=0;html=1;rounded=0;entryX=0.5;entryY=0;entryDx=0;entryDy=0;" parent="1" source="0XhNtXdoi66XtJiH6fM7-49" target="0XhNtXdoi66XtJiH6fM7-32" edge="1">
                    <mxGeometry width="160" relative="1" as="geometry">
                        <mxPoint x="410" y="330" as="sourcePoint"/>
                        <mxPoint x="520" y="302" as="targetPoint"/>
                    </mxGeometry>
                </mxCell>
                <mxCell id="0XhNtXdoi66XtJiH6fM7-46" value="Extends" style="endArrow=block;endSize=16;endFill=0;html=1;rounded=0;" parent="1" source="0XhNtXdoi66XtJiH6fM7-49" target="0XhNtXdoi66XtJiH6fM7-28" edge="1">
                    <mxGeometry width="160" relative="1" as="geometry">
                        <mxPoint x="450" y="280" as="sourcePoint"/>
                        <mxPoint x="460" y="412" as="targetPoint"/>
                        <Array as="points">
                            <mxPoint x="450" y="362"/>
                            <mxPoint x="350" y="362"/>
                            <mxPoint x="250" y="362"/>
                        </Array>
                    </mxGeometry>
                </mxCell>
                <mxCell id="0XhNtXdoi66XtJiH6fM7-47" value="Extends" style="endArrow=block;endSize=16;endFill=0;html=1;rounded=0;" parent="1" source="0XhNtXdoi66XtJiH6fM7-49" target="0XhNtXdoi66XtJiH6fM7-36" edge="1">
                    <mxGeometry x="-0.002" width="160" relative="1" as="geometry">
                        <mxPoint x="490" y="330" as="sourcePoint"/>
                        <mxPoint x="470" y="422" as="targetPoint"/>
                        <Array as="points">
                            <mxPoint x="450" y="362"/>
                            <mxPoint x="550" y="362"/>
                            <mxPoint x="650" y="362"/>
                        </Array>
                        <mxPoint as="offset"/>
                    </mxGeometry>
                </mxCell>
            </root>
        </mxGraphModel>
    </diagram>
</mxfile>